<?xml version="1.0" encoding="UTF-8" standalone="no"?>
<!DOCTYPE svg PUBLIC "-//W3C//DTD SVG 1.1//EN"
 "http://www.w3.org/Graphics/SVG/1.1/DTD/svg11.dtd">
<!-- Generated by graphviz version 2.50.0 (0)
 -->
<!-- Title: snakemake_dag Pages: 1 -->
<svg width="923pt" height="625pt"
 viewBox="0.00 0.00 922.50 625.00" xmlns="http://www.w3.org/2000/svg" xmlns:xlink="http://www.w3.org/1999/xlink">
<g id="graph0" class="graph" transform="scale(1 1) rotate(0) translate(4 621)">
<title>snakemake_dag</title>
<polygon fill="white" stroke="transparent" points="-4,4 -4,-621 918.5,-621 918.5,4 -4,4"/>
<!-- 0 -->
<g id="node1" class="node">
<title>0</title>
<path fill="none" stroke="#56c1d8" stroke-width="2" d="M470.5,-36C470.5,-36 440.5,-36 440.5,-36 434.5,-36 428.5,-30 428.5,-24 428.5,-24 428.5,-12 428.5,-12 428.5,-6 434.5,0 440.5,0 440.5,0 470.5,0 470.5,0 476.5,0 482.5,-6 482.5,-12 482.5,-12 482.5,-24 482.5,-24 482.5,-30 476.5,-36 470.5,-36"/>
<text text-anchor="middle" x="455.5" y="-15.5" font-family="sans" font-size="10.00">all</text>
</g>
<!-- 1 -->
<g id="node2" class="node">
<title>1</title>
<path fill="none" stroke="#d88d56" stroke-width="2" stroke-dasharray="5,2" d="M430.5,-108C430.5,-108 398.5,-108 398.5,-108 392.5,-108 386.5,-102 386.5,-96 386.5,-96 386.5,-84 386.5,-84 386.5,-78 392.5,-72 398.5,-72 398.5,-72 430.5,-72 430.5,-72 436.5,-72 442.5,-78 442.5,-84 442.5,-84 442.5,-96 442.5,-96 442.5,-102 436.5,-108 430.5,-108"/>
<text text-anchor="middle" x="414.5" y="-87.5" font-family="sans" font-size="10.00">diff_stat</text>
</g>
<!-- 1&#45;&gt;0 -->
<g id="edge1" class="edge">
<title>1&#45;&gt;0</title>
<path fill="none" stroke="grey" stroke-width="2" d="M424.63,-71.7C429.35,-63.64 435.06,-53.89 440.28,-44.98"/>
<polygon fill="grey" stroke="grey" stroke-width="2" points="443.45,-46.5 445.48,-36.1 437.41,-42.96 443.45,-46.5"/>
</g>
<!-- 2 -->
<g id="node3" class="node">
<title>2</title>
<path fill="none" stroke="#d8bc56" stroke-width="2" stroke-dasharray="5,2" d="M471.5,-180C471.5,-180 439.5,-180 439.5,-180 433.5,-180 427.5,-174 427.5,-168 427.5,-168 427.5,-156 427.5,-156 427.5,-150 433.5,-144 439.5,-144 439.5,-144 471.5,-144 471.5,-144 477.5,-144 483.5,-150 483.5,-156 483.5,-156 483.5,-168 483.5,-168 483.5,-174 477.5,-180 471.5,-180"/>
<text text-anchor="middle" x="455.5" y="-159.5" font-family="sans" font-size="10.00">diff_exp</text>
</g>
<!-- 2&#45;&gt;1 -->
<g id="edge3" class="edge">
<title>2&#45;&gt;1</title>
<path fill="none" stroke="grey" stroke-width="2" d="M445.37,-143.7C440.65,-135.64 434.94,-125.89 429.72,-116.98"/>
<polygon fill="grey" stroke="grey" stroke-width="2" points="432.59,-114.96 424.52,-108.1 426.55,-118.5 432.59,-114.96"/>
</g>
<!-- 31 -->
<g id="node32" class="node">
<title>31</title>
<path fill="none" stroke="#88d856" stroke-width="2" d="M520.5,-108C520.5,-108 472.5,-108 472.5,-108 466.5,-108 460.5,-102 460.5,-96 460.5,-96 460.5,-84 460.5,-84 460.5,-78 466.5,-72 472.5,-72 472.5,-72 520.5,-72 520.5,-72 526.5,-72 532.5,-78 532.5,-84 532.5,-84 532.5,-96 532.5,-96 532.5,-102 526.5,-108 520.5,-108"/>
<text text-anchor="middle" x="496.5" y="-87.5" font-family="sans" font-size="10.00">enrichment</text>
</g>
<!-- 2&#45;&gt;31 -->
<g id="edge32" class="edge">
<title>2&#45;&gt;31</title>
<path fill="none" stroke="grey" stroke-width="2" d="M465.63,-143.7C470.35,-135.64 476.06,-125.89 481.28,-116.98"/>
<polygon fill="grey" stroke="grey" stroke-width="2" points="484.45,-118.5 486.48,-108.1 478.41,-114.96 484.45,-118.5"/>
</g>
<!-- 3 -->
<g id="node4" class="node">
<title>3</title>
<path fill="none" stroke="#59d856" stroke-width="2" stroke-dasharray="5,2" d="M308.5,-252C308.5,-252 268.5,-252 268.5,-252 262.5,-252 256.5,-246 256.5,-240 256.5,-240 256.5,-228 256.5,-228 256.5,-222 262.5,-216 268.5,-216 268.5,-216 308.5,-216 308.5,-216 314.5,-216 320.5,-222 320.5,-228 320.5,-228 320.5,-240 320.5,-240 320.5,-246 314.5,-252 308.5,-252"/>
<text text-anchor="middle" x="288.5" y="-231.5" font-family="sans" font-size="10.00">gene_exp</text>
</g>
<!-- 3&#45;&gt;2 -->
<g id="edge4" class="edge">
<title>3&#45;&gt;2</title>
<path fill="none" stroke="grey" stroke-width="2" d="M320.7,-219.5C348.46,-207.87 388.57,-191.05 417.82,-178.79"/>
<polygon fill="grey" stroke="grey" stroke-width="2" points="419.42,-181.92 427.29,-174.83 416.71,-175.46 419.42,-181.92"/>
</g>
<!-- 4 -->
<g id="node5" class="node">
<title>4</title>
<path fill="none" stroke="#56d8c1" stroke-width="2" stroke-dasharray="5,2" d="M258.5,-324C258.5,-324 228.5,-324 228.5,-324 222.5,-324 216.5,-318 216.5,-312 216.5,-312 216.5,-300 216.5,-300 216.5,-294 222.5,-288 228.5,-288 228.5,-288 258.5,-288 258.5,-288 264.5,-288 270.5,-294 270.5,-300 270.5,-300 270.5,-312 270.5,-312 270.5,-318 264.5,-324 258.5,-324"/>
<text text-anchor="middle" x="243.5" y="-303.5" font-family="sans" font-size="10.00">rsem</text>
</g>
<!-- 4&#45;&gt;3 -->
<g id="edge8" class="edge">
<title>4&#45;&gt;3</title>
<path fill="none" stroke="grey" stroke-width="2" d="M254.62,-287.7C259.86,-279.56 266.2,-269.69 271.98,-260.7"/>
<polygon fill="grey" stroke="grey" stroke-width="2" points="275.04,-262.41 277.5,-252.1 269.15,-258.62 275.04,-262.41"/>
</g>
<!-- 5 -->
<g id="node6" class="node">
<title>5</title>
<path fill="none" stroke="#56d88a" stroke-width="2" stroke-dasharray="5,2" d="M258.5,-396C258.5,-396 226.5,-396 226.5,-396 220.5,-396 214.5,-390 214.5,-384 214.5,-384 214.5,-372 214.5,-372 214.5,-366 220.5,-360 226.5,-360 226.5,-360 258.5,-360 258.5,-360 264.5,-360 270.5,-366 270.5,-372 270.5,-372 270.5,-384 270.5,-384 270.5,-390 264.5,-396 258.5,-396"/>
<text text-anchor="middle" x="242.5" y="-375.5" font-family="sans" font-size="10.00">bowtie2</text>
</g>
<!-- 5&#45;&gt;4 -->
<g id="edge9" class="edge">
<title>5&#45;&gt;4</title>
<path fill="none" stroke="grey" stroke-width="2" d="M242.75,-359.7C242.86,-351.98 242.99,-342.71 243.11,-334.11"/>
<polygon fill="grey" stroke="grey" stroke-width="2" points="246.61,-334.15 243.26,-324.1 239.61,-334.05 246.61,-334.15"/>
</g>
<!-- 6 -->
<g id="node7" class="node">
<title>6</title>
<path fill="none" stroke="#bed856" stroke-width="2" stroke-dasharray="5,2" d="M263,-468C263,-468 220,-468 220,-468 214,-468 208,-462 208,-456 208,-456 208,-444 208,-444 208,-438 214,-432 220,-432 220,-432 263,-432 263,-432 269,-432 275,-438 275,-444 275,-444 275,-456 275,-456 275,-462 269,-468 263,-468"/>
<text text-anchor="middle" x="241.5" y="-447.5" font-family="sans" font-size="10.00">sortmerna</text>
</g>
<!-- 6&#45;&gt;5 -->
<g id="edge10" class="edge">
<title>6&#45;&gt;5</title>
<path fill="none" stroke="grey" stroke-width="2" d="M241.75,-431.7C241.86,-423.98 241.99,-414.71 242.11,-406.11"/>
<polygon fill="grey" stroke="grey" stroke-width="2" points="245.61,-406.15 242.26,-396.1 238.61,-406.05 245.61,-406.15"/>
</g>
<!-- 7 -->
<g id="node8" class="node">
<title>7</title>
<path fill="none" stroke="#d85656" stroke-width="2" stroke-dasharray="5,2" d="M184,-540C184,-540 149,-540 149,-540 143,-540 137,-534 137,-528 137,-528 137,-516 137,-516 137,-510 143,-504 149,-504 149,-504 184,-504 184,-504 190,-504 196,-510 196,-516 196,-516 196,-528 196,-528 196,-534 190,-540 184,-540"/>
<text text-anchor="middle" x="166.5" y="-519.5" font-family="sans" font-size="10.00">cutadapt</text>
</g>
<!-- 7&#45;&gt;6 -->
<g id="edge11" class="edge">
<title>7&#45;&gt;6</title>
<path fill="none" stroke="grey" stroke-width="2" d="M185.04,-503.7C194.3,-495.05 205.66,-484.45 215.76,-475.03"/>
<polygon fill="grey" stroke="grey" stroke-width="2" points="218.25,-477.49 223.17,-468.1 213.48,-472.37 218.25,-477.49"/>
</g>
<!-- 8 -->
<g id="node9" class="node">
<title>8</title>
<path fill="none" stroke="#568ad8" stroke-width="2" stroke-dasharray="5,2" d="M87,-617C87,-617 12,-617 12,-617 6,-617 0,-611 0,-605 0,-605 0,-588 0,-588 0,-582 6,-576 12,-576 12,-576 87,-576 87,-576 93,-576 99,-582 99,-588 99,-588 99,-605 99,-605 99,-611 93,-617 87,-617"/>
<text text-anchor="middle" x="49.5" y="-605" font-family="sans" font-size="10.00">fastqc</text>
<text text-anchor="middle" x="49.5" y="-594" font-family="sans" font-size="10.00">read: 1</text>
<text text-anchor="middle" x="49.5" y="-583" font-family="sans" font-size="10.00">sample: SR&#45;NC&#45;1</text>
</g>
<!-- 8&#45;&gt;7 -->
<g id="edge12" class="edge">
<title>8&#45;&gt;7</title>
<path fill="none" stroke="grey" stroke-width="2" d="M81.16,-575.88C96.21,-566.56 114.28,-555.36 129.92,-545.67"/>
<polygon fill="grey" stroke="grey" stroke-width="2" points="132.14,-548.41 138.8,-540.17 128.45,-542.46 132.14,-548.41"/>
</g>
<!-- 9 -->
<g id="node10" class="node">
<title>9</title>
<path fill="none" stroke="#568ad8" stroke-width="2" stroke-dasharray="5,2" d="M204,-617C204,-617 129,-617 129,-617 123,-617 117,-611 117,-605 117,-605 117,-588 117,-588 117,-582 123,-576 129,-576 129,-576 204,-576 204,-576 210,-576 216,-582 216,-588 216,-588 216,-605 216,-605 216,-611 210,-617 204,-617"/>
<text text-anchor="middle" x="166.5" y="-605" font-family="sans" font-size="10.00">fastqc</text>
<text text-anchor="middle" x="166.5" y="-594" font-family="sans" font-size="10.00">read: 2</text>
<text text-anchor="middle" x="166.5" y="-583" font-family="sans" font-size="10.00">sample: SR&#45;NC&#45;1</text>
</g>
<!-- 9&#45;&gt;7 -->
<g id="edge13" class="edge">
<title>9&#45;&gt;7</title>
<path fill="none" stroke="grey" stroke-width="2" d="M166.5,-575.69C166.5,-567.91 166.5,-558.84 166.5,-550.45"/>
<polygon fill="grey" stroke="grey" stroke-width="2" points="170,-550.32 166.5,-540.32 163,-550.32 170,-550.32"/>
</g>
<!-- 10 -->
<g id="node11" class="node">
<title>10</title>
<path fill="none" stroke="#59d856" stroke-width="2" stroke-dasharray="5,2" d="M434.5,-252C434.5,-252 394.5,-252 394.5,-252 388.5,-252 382.5,-246 382.5,-240 382.5,-240 382.5,-228 382.5,-228 382.5,-222 388.5,-216 394.5,-216 394.5,-216 434.5,-216 434.5,-216 440.5,-216 446.5,-222 446.5,-228 446.5,-228 446.5,-240 446.5,-240 446.5,-246 440.5,-252 434.5,-252"/>
<text text-anchor="middle" x="414.5" y="-231.5" font-family="sans" font-size="10.00">gene_exp</text>
</g>
<!-- 10&#45;&gt;2 -->
<g id="edge5" class="edge">
<title>10&#45;&gt;2</title>
<path fill="none" stroke="grey" stroke-width="2" d="M424.63,-215.7C429.35,-207.64 435.06,-197.89 440.28,-188.98"/>
<polygon fill="grey" stroke="grey" stroke-width="2" points="443.45,-190.5 445.48,-180.1 437.41,-186.96 443.45,-190.5"/>
</g>
<!-- 11 -->
<g id="node12" class="node">
<title>11</title>
<path fill="none" stroke="#56d8c1" stroke-width="2" stroke-dasharray="5,2" d="M424.5,-324C424.5,-324 394.5,-324 394.5,-324 388.5,-324 382.5,-318 382.5,-312 382.5,-312 382.5,-300 382.5,-300 382.5,-294 388.5,-288 394.5,-288 394.5,-288 424.5,-288 424.5,-288 430.5,-288 436.5,-294 436.5,-300 436.5,-300 436.5,-312 436.5,-312 436.5,-318 430.5,-324 424.5,-324"/>
<text text-anchor="middle" x="409.5" y="-303.5" font-family="sans" font-size="10.00">rsem</text>
</g>
<!-- 11&#45;&gt;10 -->
<g id="edge14" class="edge">
<title>11&#45;&gt;10</title>
<path fill="none" stroke="grey" stroke-width="2" d="M410.74,-287.7C411.29,-279.98 411.95,-270.71 412.56,-262.11"/>
<polygon fill="grey" stroke="grey" stroke-width="2" points="416.06,-262.33 413.28,-252.1 409.07,-261.83 416.06,-262.33"/>
</g>
<!-- 12 -->
<g id="node13" class="node">
<title>12</title>
<path fill="none" stroke="#56d88a" stroke-width="2" stroke-dasharray="5,2" d="M424.5,-396C424.5,-396 392.5,-396 392.5,-396 386.5,-396 380.5,-390 380.5,-384 380.5,-384 380.5,-372 380.5,-372 380.5,-366 386.5,-360 392.5,-360 392.5,-360 424.5,-360 424.5,-360 430.5,-360 436.5,-366 436.5,-372 436.5,-372 436.5,-384 436.5,-384 436.5,-390 430.5,-396 424.5,-396"/>
<text text-anchor="middle" x="408.5" y="-375.5" font-family="sans" font-size="10.00">bowtie2</text>
</g>
<!-- 12&#45;&gt;11 -->
<g id="edge15" class="edge">
<title>12&#45;&gt;11</title>
<path fill="none" stroke="grey" stroke-width="2" d="M408.75,-359.7C408.86,-351.98 408.99,-342.71 409.11,-334.11"/>
<polygon fill="grey" stroke="grey" stroke-width="2" points="412.61,-334.15 409.26,-324.1 405.61,-334.05 412.61,-334.15"/>
</g>
<!-- 13 -->
<g id="node14" class="node">
<title>13</title>
<path fill="none" stroke="#bed856" stroke-width="2" stroke-dasharray="5,2" d="M430,-468C430,-468 387,-468 387,-468 381,-468 375,-462 375,-456 375,-456 375,-444 375,-444 375,-438 381,-432 387,-432 387,-432 430,-432 430,-432 436,-432 442,-438 442,-444 442,-444 442,-456 442,-456 442,-462 436,-468 430,-468"/>
<text text-anchor="middle" x="408.5" y="-447.5" font-family="sans" font-size="10.00">sortmerna</text>
</g>
<!-- 13&#45;&gt;12 -->
<g id="edge16" class="edge">
<title>13&#45;&gt;12</title>
<path fill="none" stroke="grey" stroke-width="2" d="M408.5,-431.7C408.5,-423.98 408.5,-414.71 408.5,-406.11"/>
<polygon fill="grey" stroke="grey" stroke-width="2" points="412,-406.1 408.5,-396.1 405,-406.1 412,-406.1"/>
</g>
<!-- 14 -->
<g id="node15" class="node">
<title>14</title>
<path fill="none" stroke="#d85656" stroke-width="2" stroke-dasharray="5,2" d="M418,-540C418,-540 383,-540 383,-540 377,-540 371,-534 371,-528 371,-528 371,-516 371,-516 371,-510 377,-504 383,-504 383,-504 418,-504 418,-504 424,-504 430,-510 430,-516 430,-516 430,-528 430,-528 430,-534 424,-540 418,-540"/>
<text text-anchor="middle" x="400.5" y="-519.5" font-family="sans" font-size="10.00">cutadapt</text>
</g>
<!-- 14&#45;&gt;13 -->
<g id="edge17" class="edge">
<title>14&#45;&gt;13</title>
<path fill="none" stroke="grey" stroke-width="2" d="M402.48,-503.7C403.36,-495.98 404.42,-486.71 405.4,-478.11"/>
<polygon fill="grey" stroke="grey" stroke-width="2" points="408.89,-478.44 406.55,-468.1 401.93,-477.64 408.89,-478.44"/>
</g>
<!-- 15 -->
<g id="node16" class="node">
<title>15</title>
<path fill="none" stroke="#568ad8" stroke-width="2" stroke-dasharray="5,2" d="M321,-617C321,-617 246,-617 246,-617 240,-617 234,-611 234,-605 234,-605 234,-588 234,-588 234,-582 240,-576 246,-576 246,-576 321,-576 321,-576 327,-576 333,-582 333,-588 333,-588 333,-605 333,-605 333,-611 327,-617 321,-617"/>
<text text-anchor="middle" x="283.5" y="-605" font-family="sans" font-size="10.00">fastqc</text>
<text text-anchor="middle" x="283.5" y="-594" font-family="sans" font-size="10.00">read: 1</text>
<text text-anchor="middle" x="283.5" y="-583" font-family="sans" font-size="10.00">sample: SR&#45;NC&#45;2</text>
</g>
<!-- 15&#45;&gt;14 -->
<g id="edge18" class="edge">
<title>15&#45;&gt;14</title>
<path fill="none" stroke="grey" stroke-width="2" d="M315.16,-575.88C330.21,-566.56 348.28,-555.36 363.92,-545.67"/>
<polygon fill="grey" stroke="grey" stroke-width="2" points="366.14,-548.41 372.8,-540.17 362.45,-542.46 366.14,-548.41"/>
</g>
<!-- 16 -->
<g id="node17" class="node">
<title>16</title>
<path fill="none" stroke="#568ad8" stroke-width="2" stroke-dasharray="5,2" d="M438,-617C438,-617 363,-617 363,-617 357,-617 351,-611 351,-605 351,-605 351,-588 351,-588 351,-582 357,-576 363,-576 363,-576 438,-576 438,-576 444,-576 450,-582 450,-588 450,-588 450,-605 450,-605 450,-611 444,-617 438,-617"/>
<text text-anchor="middle" x="400.5" y="-605" font-family="sans" font-size="10.00">fastqc</text>
<text text-anchor="middle" x="400.5" y="-594" font-family="sans" font-size="10.00">read: 2</text>
<text text-anchor="middle" x="400.5" y="-583" font-family="sans" font-size="10.00">sample: SR&#45;NC&#45;2</text>
</g>
<!-- 16&#45;&gt;14 -->
<g id="edge19" class="edge">
<title>16&#45;&gt;14</title>
<path fill="none" stroke="grey" stroke-width="2" d="M400.5,-575.69C400.5,-567.91 400.5,-558.84 400.5,-550.45"/>
<polygon fill="grey" stroke="grey" stroke-width="2" points="404,-550.32 400.5,-540.32 397,-550.32 404,-550.32"/>
</g>
<!-- 17 -->
<g id="node18" class="node">
<title>17</title>
<path fill="none" stroke="#59d856" stroke-width="2" stroke-dasharray="5,2" d="M517.5,-252C517.5,-252 477.5,-252 477.5,-252 471.5,-252 465.5,-246 465.5,-240 465.5,-240 465.5,-228 465.5,-228 465.5,-222 471.5,-216 477.5,-216 477.5,-216 517.5,-216 517.5,-216 523.5,-216 529.5,-222 529.5,-228 529.5,-228 529.5,-240 529.5,-240 529.5,-246 523.5,-252 517.5,-252"/>
<text text-anchor="middle" x="497.5" y="-231.5" font-family="sans" font-size="10.00">gene_exp</text>
</g>
<!-- 17&#45;&gt;2 -->
<g id="edge6" class="edge">
<title>17&#45;&gt;2</title>
<path fill="none" stroke="grey" stroke-width="2" d="M487.12,-215.7C482.24,-207.56 476.31,-197.69 470.92,-188.7"/>
<polygon fill="grey" stroke="grey" stroke-width="2" points="473.91,-186.88 465.76,-180.1 467.91,-190.48 473.91,-186.88"/>
</g>
<!-- 18 -->
<g id="node19" class="node">
<title>18</title>
<path fill="none" stroke="#56d8c1" stroke-width="2" stroke-dasharray="5,2" d="M512.5,-324C512.5,-324 482.5,-324 482.5,-324 476.5,-324 470.5,-318 470.5,-312 470.5,-312 470.5,-300 470.5,-300 470.5,-294 476.5,-288 482.5,-288 482.5,-288 512.5,-288 512.5,-288 518.5,-288 524.5,-294 524.5,-300 524.5,-300 524.5,-312 524.5,-312 524.5,-318 518.5,-324 512.5,-324"/>
<text text-anchor="middle" x="497.5" y="-303.5" font-family="sans" font-size="10.00">rsem</text>
</g>
<!-- 18&#45;&gt;17 -->
<g id="edge20" class="edge">
<title>18&#45;&gt;17</title>
<path fill="none" stroke="grey" stroke-width="2" d="M497.5,-287.7C497.5,-279.98 497.5,-270.71 497.5,-262.11"/>
<polygon fill="grey" stroke="grey" stroke-width="2" points="501,-262.1 497.5,-252.1 494,-262.1 501,-262.1"/>
</g>
<!-- 19 -->
<g id="node20" class="node">
<title>19</title>
<path fill="none" stroke="#56d88a" stroke-width="2" stroke-dasharray="5,2" d="M516.5,-396C516.5,-396 484.5,-396 484.5,-396 478.5,-396 472.5,-390 472.5,-384 472.5,-384 472.5,-372 472.5,-372 472.5,-366 478.5,-360 484.5,-360 484.5,-360 516.5,-360 516.5,-360 522.5,-360 528.5,-366 528.5,-372 528.5,-372 528.5,-384 528.5,-384 528.5,-390 522.5,-396 516.5,-396"/>
<text text-anchor="middle" x="500.5" y="-375.5" font-family="sans" font-size="10.00">bowtie2</text>
</g>
<!-- 19&#45;&gt;18 -->
<g id="edge21" class="edge">
<title>19&#45;&gt;18</title>
<path fill="none" stroke="grey" stroke-width="2" d="M499.76,-359.7C499.43,-351.98 499.03,-342.71 498.66,-334.11"/>
<polygon fill="grey" stroke="grey" stroke-width="2" points="502.16,-333.95 498.23,-324.1 495.16,-334.25 502.16,-333.95"/>
</g>
<!-- 20 -->
<g id="node21" class="node">
<title>20</title>
<path fill="none" stroke="#bed856" stroke-width="2" stroke-dasharray="5,2" d="M523,-468C523,-468 480,-468 480,-468 474,-468 468,-462 468,-456 468,-456 468,-444 468,-444 468,-438 474,-432 480,-432 480,-432 523,-432 523,-432 529,-432 535,-438 535,-444 535,-444 535,-456 535,-456 535,-462 529,-468 523,-468"/>
<text text-anchor="middle" x="501.5" y="-447.5" font-family="sans" font-size="10.00">sortmerna</text>
</g>
<!-- 20&#45;&gt;19 -->
<g id="edge22" class="edge">
<title>20&#45;&gt;19</title>
<path fill="none" stroke="grey" stroke-width="2" d="M501.25,-431.7C501.14,-423.98 501.01,-414.71 500.89,-406.11"/>
<polygon fill="grey" stroke="grey" stroke-width="2" points="504.39,-406.05 500.74,-396.1 497.39,-406.15 504.39,-406.05"/>
</g>
<!-- 21 -->
<g id="node22" class="node">
<title>21</title>
<path fill="none" stroke="#d85656" stroke-width="2" stroke-dasharray="5,2" d="M535,-540C535,-540 500,-540 500,-540 494,-540 488,-534 488,-528 488,-528 488,-516 488,-516 488,-510 494,-504 500,-504 500,-504 535,-504 535,-504 541,-504 547,-510 547,-516 547,-516 547,-528 547,-528 547,-534 541,-540 535,-540"/>
<text text-anchor="middle" x="517.5" y="-519.5" font-family="sans" font-size="10.00">cutadapt</text>
</g>
<!-- 21&#45;&gt;20 -->
<g id="edge23" class="edge">
<title>21&#45;&gt;20</title>
<path fill="none" stroke="grey" stroke-width="2" d="M513.54,-503.7C511.78,-495.98 509.66,-486.71 507.7,-478.11"/>
<polygon fill="grey" stroke="grey" stroke-width="2" points="511.05,-477.07 505.41,-468.1 504.23,-478.63 511.05,-477.07"/>
</g>
<!-- 22 -->
<g id="node23" class="node">
<title>22</title>
<path fill="none" stroke="#568ad8" stroke-width="2" stroke-dasharray="5,2" d="M554.5,-617C554.5,-617 480.5,-617 480.5,-617 474.5,-617 468.5,-611 468.5,-605 468.5,-605 468.5,-588 468.5,-588 468.5,-582 474.5,-576 480.5,-576 480.5,-576 554.5,-576 554.5,-576 560.5,-576 566.5,-582 566.5,-588 566.5,-588 566.5,-605 566.5,-605 566.5,-611 560.5,-617 554.5,-617"/>
<text text-anchor="middle" x="517.5" y="-605" font-family="sans" font-size="10.00">fastqc</text>
<text text-anchor="middle" x="517.5" y="-594" font-family="sans" font-size="10.00">read: 1</text>
<text text-anchor="middle" x="517.5" y="-583" font-family="sans" font-size="10.00">sample: SR&#45;OE&#45;1</text>
</g>
<!-- 22&#45;&gt;21 -->
<g id="edge24" class="edge">
<title>22&#45;&gt;21</title>
<path fill="none" stroke="grey" stroke-width="2" d="M517.5,-575.69C517.5,-567.91 517.5,-558.84 517.5,-550.45"/>
<polygon fill="grey" stroke="grey" stroke-width="2" points="521,-550.32 517.5,-540.32 514,-550.32 521,-550.32"/>
</g>
<!-- 23 -->
<g id="node24" class="node">
<title>23</title>
<path fill="none" stroke="#568ad8" stroke-width="2" stroke-dasharray="5,2" d="M670.5,-617C670.5,-617 596.5,-617 596.5,-617 590.5,-617 584.5,-611 584.5,-605 584.5,-605 584.5,-588 584.5,-588 584.5,-582 590.5,-576 596.5,-576 596.5,-576 670.5,-576 670.5,-576 676.5,-576 682.5,-582 682.5,-588 682.5,-588 682.5,-605 682.5,-605 682.5,-611 676.5,-617 670.5,-617"/>
<text text-anchor="middle" x="633.5" y="-605" font-family="sans" font-size="10.00">fastqc</text>
<text text-anchor="middle" x="633.5" y="-594" font-family="sans" font-size="10.00">read: 2</text>
<text text-anchor="middle" x="633.5" y="-583" font-family="sans" font-size="10.00">sample: SR&#45;OE&#45;1</text>
</g>
<!-- 23&#45;&gt;21 -->
<g id="edge25" class="edge">
<title>23&#45;&gt;21</title>
<path fill="none" stroke="grey" stroke-width="2" d="M602.11,-575.88C587.19,-566.56 569.27,-555.36 553.77,-545.67"/>
<polygon fill="grey" stroke="grey" stroke-width="2" points="555.3,-542.5 544.97,-540.17 551.59,-548.43 555.3,-542.5"/>
</g>
<!-- 24 -->
<g id="node25" class="node">
<title>24</title>
<path fill="none" stroke="#59d856" stroke-width="2" stroke-dasharray="5,2" d="M641.5,-252C641.5,-252 601.5,-252 601.5,-252 595.5,-252 589.5,-246 589.5,-240 589.5,-240 589.5,-228 589.5,-228 589.5,-222 595.5,-216 601.5,-216 601.5,-216 641.5,-216 641.5,-216 647.5,-216 653.5,-222 653.5,-228 653.5,-228 653.5,-240 653.5,-240 653.5,-246 647.5,-252 641.5,-252"/>
<text text-anchor="middle" x="621.5" y="-231.5" font-family="sans" font-size="10.00">gene_exp</text>
</g>
<!-- 24&#45;&gt;2 -->
<g id="edge7" class="edge">
<title>24&#45;&gt;2</title>
<path fill="none" stroke="grey" stroke-width="2" d="M589.49,-219.5C561.9,-207.87 522.03,-191.05 492.95,-178.79"/>
<polygon fill="grey" stroke="grey" stroke-width="2" points="494.12,-175.49 483.54,-174.83 491.4,-181.94 494.12,-175.49"/>
</g>
<!-- 25 -->
<g id="node26" class="node">
<title>25</title>
<path fill="none" stroke="#56d8c1" stroke-width="2" stroke-dasharray="5,2" d="M657.5,-324C657.5,-324 627.5,-324 627.5,-324 621.5,-324 615.5,-318 615.5,-312 615.5,-312 615.5,-300 615.5,-300 615.5,-294 621.5,-288 627.5,-288 627.5,-288 657.5,-288 657.5,-288 663.5,-288 669.5,-294 669.5,-300 669.5,-300 669.5,-312 669.5,-312 669.5,-318 663.5,-324 657.5,-324"/>
<text text-anchor="middle" x="642.5" y="-303.5" font-family="sans" font-size="10.00">rsem</text>
</g>
<!-- 25&#45;&gt;24 -->
<g id="edge26" class="edge">
<title>25&#45;&gt;24</title>
<path fill="none" stroke="grey" stroke-width="2" d="M637.31,-287.7C634.97,-279.9 632.15,-270.51 629.55,-261.83"/>
<polygon fill="grey" stroke="grey" stroke-width="2" points="632.86,-260.68 626.63,-252.1 626.15,-262.69 632.86,-260.68"/>
</g>
<!-- 26 -->
<g id="node27" class="node">
<title>26</title>
<path fill="none" stroke="#56d88a" stroke-width="2" stroke-dasharray="5,2" d="M744.5,-396C744.5,-396 712.5,-396 712.5,-396 706.5,-396 700.5,-390 700.5,-384 700.5,-384 700.5,-372 700.5,-372 700.5,-366 706.5,-360 712.5,-360 712.5,-360 744.5,-360 744.5,-360 750.5,-360 756.5,-366 756.5,-372 756.5,-372 756.5,-384 756.5,-384 756.5,-390 750.5,-396 744.5,-396"/>
<text text-anchor="middle" x="728.5" y="-375.5" font-family="sans" font-size="10.00">bowtie2</text>
</g>
<!-- 26&#45;&gt;25 -->
<g id="edge27" class="edge">
<title>26&#45;&gt;25</title>
<path fill="none" stroke="grey" stroke-width="2" d="M707.24,-359.7C696.41,-350.88 683.08,-340.03 671.34,-330.47"/>
<polygon fill="grey" stroke="grey" stroke-width="2" points="673.48,-327.7 663.51,-324.1 669.06,-333.13 673.48,-327.7"/>
</g>
<!-- 27 -->
<g id="node28" class="node">
<title>27</title>
<path fill="none" stroke="#bed856" stroke-width="2" stroke-dasharray="5,2" d="M761,-468C761,-468 718,-468 718,-468 712,-468 706,-462 706,-456 706,-456 706,-444 706,-444 706,-438 712,-432 718,-432 718,-432 761,-432 761,-432 767,-432 773,-438 773,-444 773,-444 773,-456 773,-456 773,-462 767,-468 761,-468"/>
<text text-anchor="middle" x="739.5" y="-447.5" font-family="sans" font-size="10.00">sortmerna</text>
</g>
<!-- 27&#45;&gt;26 -->
<g id="edge28" class="edge">
<title>27&#45;&gt;26</title>
<path fill="none" stroke="grey" stroke-width="2" d="M736.78,-431.7C735.57,-423.98 734.11,-414.71 732.76,-406.11"/>
<polygon fill="grey" stroke="grey" stroke-width="2" points="736.2,-405.44 731.19,-396.1 729.28,-406.53 736.2,-405.44"/>
</g>
<!-- 28 -->
<g id="node29" class="node">
<title>28</title>
<path fill="none" stroke="#d85656" stroke-width="2" stroke-dasharray="5,2" d="M767,-540C767,-540 732,-540 732,-540 726,-540 720,-534 720,-528 720,-528 720,-516 720,-516 720,-510 726,-504 732,-504 732,-504 767,-504 767,-504 773,-504 779,-510 779,-516 779,-516 779,-528 779,-528 779,-534 773,-540 767,-540"/>
<text text-anchor="middle" x="749.5" y="-519.5" font-family="sans" font-size="10.00">cutadapt</text>
</g>
<!-- 28&#45;&gt;27 -->
<g id="edge29" class="edge">
<title>28&#45;&gt;27</title>
<path fill="none" stroke="grey" stroke-width="2" d="M747.03,-503.7C745.93,-495.98 744.6,-486.71 743.37,-478.11"/>
<polygon fill="grey" stroke="grey" stroke-width="2" points="746.82,-477.51 741.94,-468.1 739.89,-478.5 746.82,-477.51"/>
</g>
<!-- 29 -->
<g id="node30" class="node">
<title>29</title>
<path fill="none" stroke="#568ad8" stroke-width="2" stroke-dasharray="5,2" d="M786.5,-617C786.5,-617 712.5,-617 712.5,-617 706.5,-617 700.5,-611 700.5,-605 700.5,-605 700.5,-588 700.5,-588 700.5,-582 706.5,-576 712.5,-576 712.5,-576 786.5,-576 786.5,-576 792.5,-576 798.5,-582 798.5,-588 798.5,-588 798.5,-605 798.5,-605 798.5,-611 792.5,-617 786.5,-617"/>
<text text-anchor="middle" x="749.5" y="-605" font-family="sans" font-size="10.00">fastqc</text>
<text text-anchor="middle" x="749.5" y="-594" font-family="sans" font-size="10.00">read: 1</text>
<text text-anchor="middle" x="749.5" y="-583" font-family="sans" font-size="10.00">sample: SR&#45;OE&#45;2</text>
</g>
<!-- 29&#45;&gt;28 -->
<g id="edge30" class="edge">
<title>29&#45;&gt;28</title>
<path fill="none" stroke="grey" stroke-width="2" d="M749.5,-575.69C749.5,-567.91 749.5,-558.84 749.5,-550.45"/>
<polygon fill="grey" stroke="grey" stroke-width="2" points="753,-550.32 749.5,-540.32 746,-550.32 753,-550.32"/>
</g>
<!-- 30 -->
<g id="node31" class="node">
<title>30</title>
<path fill="none" stroke="#568ad8" stroke-width="2" stroke-dasharray="5,2" d="M902.5,-617C902.5,-617 828.5,-617 828.5,-617 822.5,-617 816.5,-611 816.5,-605 816.5,-605 816.5,-588 816.5,-588 816.5,-582 822.5,-576 828.5,-576 828.5,-576 902.5,-576 902.5,-576 908.5,-576 914.5,-582 914.5,-588 914.5,-588 914.5,-605 914.5,-605 914.5,-611 908.5,-617 902.5,-617"/>
<text text-anchor="middle" x="865.5" y="-605" font-family="sans" font-size="10.00">fastqc</text>
<text text-anchor="middle" x="865.5" y="-594" font-family="sans" font-size="10.00">read: 2</text>
<text text-anchor="middle" x="865.5" y="-583" font-family="sans" font-size="10.00">sample: SR&#45;OE&#45;2</text>
</g>
<!-- 30&#45;&gt;28 -->
<g id="edge31" class="edge">
<title>30&#45;&gt;28</title>
<path fill="none" stroke="grey" stroke-width="2" d="M834.11,-575.88C819.19,-566.56 801.27,-555.36 785.77,-545.67"/>
<polygon fill="grey" stroke="grey" stroke-width="2" points="787.3,-542.5 776.97,-540.17 783.59,-548.43 787.3,-542.5"/>
</g>
<!-- 31&#45;&gt;0 -->
<g id="edge2" class="edge">
<title>31&#45;&gt;0</title>
<path fill="none" stroke="grey" stroke-width="2" d="M486.37,-71.7C481.65,-63.64 475.94,-53.89 470.72,-44.98"/>
<polygon fill="grey" stroke="grey" stroke-width="2" points="473.59,-42.96 465.52,-36.1 467.55,-46.5 473.59,-42.96"/>
</g>
</g>
</svg>
